<mxfile host="app.diagrams.net" modified="2023-11-26T23:19:36.627Z" agent="Mozilla/5.0 (Windows NT 10.0; Win64; x64) AppleWebKit/537.36 (KHTML, like Gecko) Chrome/118.0.0.0 Safari/537.36 OPR/104.0.0.0" etag="xEVkod8KLsjf2XEzJs-z" version="22.1.4" type="github">
  <diagram name="Page-1" id="u6SwnhS92BJKppdcG7K9">
    <mxGraphModel dx="2487" dy="1230" grid="0" gridSize="10" guides="1" tooltips="1" connect="1" arrows="1" fold="1" page="0" pageScale="1" pageWidth="850" pageHeight="1100" math="0" shadow="0">
      <root>
        <mxCell id="0" />
        <mxCell id="1" parent="0" />
        <mxCell id="0ztDgN1kvt_cEAfgAysD-1" value="Tecnico" style="shape=table;startSize=30;container=1;collapsible=1;childLayout=tableLayout;fixedRows=1;rowLines=0;fontStyle=1;align=center;resizeLast=1;html=1;" vertex="1" parent="1">
          <mxGeometry x="6" y="141" width="180" height="180" as="geometry" />
        </mxCell>
        <mxCell id="0ztDgN1kvt_cEAfgAysD-2" value="" style="shape=tableRow;horizontal=0;startSize=0;swimlaneHead=0;swimlaneBody=0;fillColor=none;collapsible=0;dropTarget=0;points=[[0,0.5],[1,0.5]];portConstraint=eastwest;top=0;left=0;right=0;bottom=1;" vertex="1" parent="0ztDgN1kvt_cEAfgAysD-1">
          <mxGeometry y="30" width="180" height="30" as="geometry" />
        </mxCell>
        <mxCell id="0ztDgN1kvt_cEAfgAysD-3" value="PK" style="shape=partialRectangle;connectable=0;fillColor=none;top=0;left=0;bottom=0;right=0;fontStyle=1;overflow=hidden;whiteSpace=wrap;html=1;" vertex="1" parent="0ztDgN1kvt_cEAfgAysD-2">
          <mxGeometry width="49.350067138671875" height="30" as="geometry">
            <mxRectangle width="49.350067138671875" height="30" as="alternateBounds" />
          </mxGeometry>
        </mxCell>
        <mxCell id="0ztDgN1kvt_cEAfgAysD-4" value="IdTecnico" style="shape=partialRectangle;connectable=0;fillColor=none;top=0;left=0;bottom=0;right=0;align=left;spacingLeft=6;fontStyle=5;overflow=hidden;whiteSpace=wrap;html=1;" vertex="1" parent="0ztDgN1kvt_cEAfgAysD-2">
          <mxGeometry x="49.350067138671875" width="130.64993286132812" height="30" as="geometry">
            <mxRectangle width="130.64993286132812" height="30" as="alternateBounds" />
          </mxGeometry>
        </mxCell>
        <mxCell id="0ztDgN1kvt_cEAfgAysD-5" value="" style="shape=tableRow;horizontal=0;startSize=0;swimlaneHead=0;swimlaneBody=0;fillColor=none;collapsible=0;dropTarget=0;points=[[0,0.5],[1,0.5]];portConstraint=eastwest;top=0;left=0;right=0;bottom=0;" vertex="1" parent="0ztDgN1kvt_cEAfgAysD-1">
          <mxGeometry y="60" width="180" height="30" as="geometry" />
        </mxCell>
        <mxCell id="0ztDgN1kvt_cEAfgAysD-6" value="uk, nn" style="shape=partialRectangle;connectable=0;fillColor=none;top=0;left=0;bottom=0;right=0;editable=1;overflow=hidden;whiteSpace=wrap;html=1;" vertex="1" parent="0ztDgN1kvt_cEAfgAysD-5">
          <mxGeometry width="49.350067138671875" height="30" as="geometry">
            <mxRectangle width="49.350067138671875" height="30" as="alternateBounds" />
          </mxGeometry>
        </mxCell>
        <mxCell id="0ztDgN1kvt_cEAfgAysD-7" value="DNI" style="shape=partialRectangle;connectable=0;fillColor=none;top=0;left=0;bottom=0;right=0;align=left;spacingLeft=6;overflow=hidden;whiteSpace=wrap;html=1;" vertex="1" parent="0ztDgN1kvt_cEAfgAysD-5">
          <mxGeometry x="49.350067138671875" width="130.64993286132812" height="30" as="geometry">
            <mxRectangle width="130.64993286132812" height="30" as="alternateBounds" />
          </mxGeometry>
        </mxCell>
        <mxCell id="0ztDgN1kvt_cEAfgAysD-8" value="" style="shape=tableRow;horizontal=0;startSize=0;swimlaneHead=0;swimlaneBody=0;fillColor=none;collapsible=0;dropTarget=0;points=[[0,0.5],[1,0.5]];portConstraint=eastwest;top=0;left=0;right=0;bottom=0;" vertex="1" parent="0ztDgN1kvt_cEAfgAysD-1">
          <mxGeometry y="90" width="180" height="30" as="geometry" />
        </mxCell>
        <mxCell id="0ztDgN1kvt_cEAfgAysD-9" value="nn" style="shape=partialRectangle;connectable=0;fillColor=none;top=0;left=0;bottom=0;right=0;editable=1;overflow=hidden;whiteSpace=wrap;html=1;" vertex="1" parent="0ztDgN1kvt_cEAfgAysD-8">
          <mxGeometry width="49.350067138671875" height="30" as="geometry">
            <mxRectangle width="49.350067138671875" height="30" as="alternateBounds" />
          </mxGeometry>
        </mxCell>
        <mxCell id="0ztDgN1kvt_cEAfgAysD-10" value="Nombre" style="shape=partialRectangle;connectable=0;fillColor=none;top=0;left=0;bottom=0;right=0;align=left;spacingLeft=6;overflow=hidden;whiteSpace=wrap;html=1;" vertex="1" parent="0ztDgN1kvt_cEAfgAysD-8">
          <mxGeometry x="49.350067138671875" width="130.64993286132812" height="30" as="geometry">
            <mxRectangle width="130.64993286132812" height="30" as="alternateBounds" />
          </mxGeometry>
        </mxCell>
        <mxCell id="0ztDgN1kvt_cEAfgAysD-11" value="" style="shape=tableRow;horizontal=0;startSize=0;swimlaneHead=0;swimlaneBody=0;fillColor=none;collapsible=0;dropTarget=0;points=[[0,0.5],[1,0.5]];portConstraint=eastwest;top=0;left=0;right=0;bottom=0;" vertex="1" parent="0ztDgN1kvt_cEAfgAysD-1">
          <mxGeometry y="120" width="180" height="30" as="geometry" />
        </mxCell>
        <mxCell id="0ztDgN1kvt_cEAfgAysD-12" value="nn" style="shape=partialRectangle;connectable=0;fillColor=none;top=0;left=0;bottom=0;right=0;editable=1;overflow=hidden;whiteSpace=wrap;html=1;" vertex="1" parent="0ztDgN1kvt_cEAfgAysD-11">
          <mxGeometry width="49.350067138671875" height="30" as="geometry">
            <mxRectangle width="49.350067138671875" height="30" as="alternateBounds" />
          </mxGeometry>
        </mxCell>
        <mxCell id="0ztDgN1kvt_cEAfgAysD-13" value="Apellidos" style="shape=partialRectangle;connectable=0;fillColor=none;top=0;left=0;bottom=0;right=0;align=left;spacingLeft=6;overflow=hidden;whiteSpace=wrap;html=1;" vertex="1" parent="0ztDgN1kvt_cEAfgAysD-11">
          <mxGeometry x="49.350067138671875" width="130.64993286132812" height="30" as="geometry">
            <mxRectangle width="130.64993286132812" height="30" as="alternateBounds" />
          </mxGeometry>
        </mxCell>
        <mxCell id="0ztDgN1kvt_cEAfgAysD-17" value="" style="shape=tableRow;horizontal=0;startSize=0;swimlaneHead=0;swimlaneBody=0;fillColor=none;collapsible=0;dropTarget=0;points=[[0,0.5],[1,0.5]];portConstraint=eastwest;top=0;left=0;right=0;bottom=0;" vertex="1" parent="0ztDgN1kvt_cEAfgAysD-1">
          <mxGeometry y="150" width="180" height="30" as="geometry" />
        </mxCell>
        <mxCell id="0ztDgN1kvt_cEAfgAysD-18" value="nn" style="shape=partialRectangle;connectable=0;fillColor=none;top=0;left=0;bottom=0;right=0;editable=1;overflow=hidden;whiteSpace=wrap;html=1;" vertex="1" parent="0ztDgN1kvt_cEAfgAysD-17">
          <mxGeometry width="49.350067138671875" height="30" as="geometry">
            <mxRectangle width="49.350067138671875" height="30" as="alternateBounds" />
          </mxGeometry>
        </mxCell>
        <mxCell id="0ztDgN1kvt_cEAfgAysD-19" value="FechaNacimiento" style="shape=partialRectangle;connectable=0;fillColor=none;top=0;left=0;bottom=0;right=0;align=left;spacingLeft=6;overflow=hidden;whiteSpace=wrap;html=1;" vertex="1" parent="0ztDgN1kvt_cEAfgAysD-17">
          <mxGeometry x="49.350067138671875" width="130.64993286132812" height="30" as="geometry">
            <mxRectangle width="130.64993286132812" height="30" as="alternateBounds" />
          </mxGeometry>
        </mxCell>
        <mxCell id="0ztDgN1kvt_cEAfgAysD-20" value="Maquina" style="shape=table;startSize=30;container=1;collapsible=1;childLayout=tableLayout;fixedRows=1;rowLines=0;fontStyle=1;align=center;resizeLast=1;html=1;" vertex="1" parent="1">
          <mxGeometry x="630" y="149" width="180" height="150" as="geometry" />
        </mxCell>
        <mxCell id="0ztDgN1kvt_cEAfgAysD-21" value="" style="shape=tableRow;horizontal=0;startSize=0;swimlaneHead=0;swimlaneBody=0;fillColor=none;collapsible=0;dropTarget=0;points=[[0,0.5],[1,0.5]];portConstraint=eastwest;top=0;left=0;right=0;bottom=1;" vertex="1" parent="0ztDgN1kvt_cEAfgAysD-20">
          <mxGeometry y="30" width="180" height="30" as="geometry" />
        </mxCell>
        <mxCell id="0ztDgN1kvt_cEAfgAysD-22" value="PK" style="shape=partialRectangle;connectable=0;fillColor=none;top=0;left=0;bottom=0;right=0;fontStyle=1;overflow=hidden;whiteSpace=wrap;html=1;" vertex="1" parent="0ztDgN1kvt_cEAfgAysD-21">
          <mxGeometry width="30" height="30" as="geometry">
            <mxRectangle width="30" height="30" as="alternateBounds" />
          </mxGeometry>
        </mxCell>
        <mxCell id="0ztDgN1kvt_cEAfgAysD-23" value="MaquinaId" style="shape=partialRectangle;connectable=0;fillColor=none;top=0;left=0;bottom=0;right=0;align=left;spacingLeft=6;fontStyle=5;overflow=hidden;whiteSpace=wrap;html=1;" vertex="1" parent="0ztDgN1kvt_cEAfgAysD-21">
          <mxGeometry x="30" width="150" height="30" as="geometry">
            <mxRectangle width="150" height="30" as="alternateBounds" />
          </mxGeometry>
        </mxCell>
        <mxCell id="0ztDgN1kvt_cEAfgAysD-24" value="" style="shape=tableRow;horizontal=0;startSize=0;swimlaneHead=0;swimlaneBody=0;fillColor=none;collapsible=0;dropTarget=0;points=[[0,0.5],[1,0.5]];portConstraint=eastwest;top=0;left=0;right=0;bottom=0;" vertex="1" parent="0ztDgN1kvt_cEAfgAysD-20">
          <mxGeometry y="60" width="180" height="30" as="geometry" />
        </mxCell>
        <mxCell id="0ztDgN1kvt_cEAfgAysD-25" value="nn" style="shape=partialRectangle;connectable=0;fillColor=none;top=0;left=0;bottom=0;right=0;editable=1;overflow=hidden;whiteSpace=wrap;html=1;" vertex="1" parent="0ztDgN1kvt_cEAfgAysD-24">
          <mxGeometry width="30" height="30" as="geometry">
            <mxRectangle width="30" height="30" as="alternateBounds" />
          </mxGeometry>
        </mxCell>
        <mxCell id="0ztDgN1kvt_cEAfgAysD-26" value="Modelo" style="shape=partialRectangle;connectable=0;fillColor=none;top=0;left=0;bottom=0;right=0;align=left;spacingLeft=6;overflow=hidden;whiteSpace=wrap;html=1;" vertex="1" parent="0ztDgN1kvt_cEAfgAysD-24">
          <mxGeometry x="30" width="150" height="30" as="geometry">
            <mxRectangle width="150" height="30" as="alternateBounds" />
          </mxGeometry>
        </mxCell>
        <mxCell id="0ztDgN1kvt_cEAfgAysD-27" value="" style="shape=tableRow;horizontal=0;startSize=0;swimlaneHead=0;swimlaneBody=0;fillColor=none;collapsible=0;dropTarget=0;points=[[0,0.5],[1,0.5]];portConstraint=eastwest;top=0;left=0;right=0;bottom=0;" vertex="1" parent="0ztDgN1kvt_cEAfgAysD-20">
          <mxGeometry y="90" width="180" height="30" as="geometry" />
        </mxCell>
        <mxCell id="0ztDgN1kvt_cEAfgAysD-28" value="nn" style="shape=partialRectangle;connectable=0;fillColor=none;top=0;left=0;bottom=0;right=0;editable=1;overflow=hidden;whiteSpace=wrap;html=1;" vertex="1" parent="0ztDgN1kvt_cEAfgAysD-27">
          <mxGeometry width="30" height="30" as="geometry">
            <mxRectangle width="30" height="30" as="alternateBounds" />
          </mxGeometry>
        </mxCell>
        <mxCell id="0ztDgN1kvt_cEAfgAysD-29" value="Marca" style="shape=partialRectangle;connectable=0;fillColor=none;top=0;left=0;bottom=0;right=0;align=left;spacingLeft=6;overflow=hidden;whiteSpace=wrap;html=1;" vertex="1" parent="0ztDgN1kvt_cEAfgAysD-27">
          <mxGeometry x="30" width="150" height="30" as="geometry">
            <mxRectangle width="150" height="30" as="alternateBounds" />
          </mxGeometry>
        </mxCell>
        <mxCell id="0ztDgN1kvt_cEAfgAysD-127" value="" style="shape=tableRow;horizontal=0;startSize=0;swimlaneHead=0;swimlaneBody=0;fillColor=none;collapsible=0;dropTarget=0;points=[[0,0.5],[1,0.5]];portConstraint=eastwest;top=0;left=0;right=0;bottom=0;" vertex="1" parent="0ztDgN1kvt_cEAfgAysD-20">
          <mxGeometry y="120" width="180" height="30" as="geometry" />
        </mxCell>
        <mxCell id="0ztDgN1kvt_cEAfgAysD-128" value="nn" style="shape=partialRectangle;connectable=0;fillColor=none;top=0;left=0;bottom=0;right=0;editable=1;overflow=hidden;whiteSpace=wrap;html=1;" vertex="1" parent="0ztDgN1kvt_cEAfgAysD-127">
          <mxGeometry width="30" height="30" as="geometry">
            <mxRectangle width="30" height="30" as="alternateBounds" />
          </mxGeometry>
        </mxCell>
        <mxCell id="0ztDgN1kvt_cEAfgAysD-129" value="IdPlanta" style="shape=partialRectangle;connectable=0;fillColor=none;top=0;left=0;bottom=0;right=0;align=left;spacingLeft=6;overflow=hidden;whiteSpace=wrap;html=1;" vertex="1" parent="0ztDgN1kvt_cEAfgAysD-127">
          <mxGeometry x="30" width="150" height="30" as="geometry">
            <mxRectangle width="150" height="30" as="alternateBounds" />
          </mxGeometry>
        </mxCell>
        <mxCell id="0ztDgN1kvt_cEAfgAysD-33" value="Turnos" style="shape=table;startSize=30;container=1;collapsible=1;childLayout=tableLayout;fixedRows=1;rowLines=0;fontStyle=1;align=center;resizeLast=1;html=1;whiteSpace=wrap;" vertex="1" parent="1">
          <mxGeometry x="311" y="127.85" width="234.1500244140625" height="162.30001831054688" as="geometry" />
        </mxCell>
        <mxCell id="0ztDgN1kvt_cEAfgAysD-34" value="" style="shape=tableRow;horizontal=0;startSize=0;swimlaneHead=0;swimlaneBody=0;fillColor=none;collapsible=0;dropTarget=0;points=[[0,0.5],[1,0.5]];portConstraint=eastwest;top=0;left=0;right=0;bottom=0;html=1;" vertex="1" parent="0ztDgN1kvt_cEAfgAysD-33">
          <mxGeometry y="30" width="234.1500244140625" height="30" as="geometry" />
        </mxCell>
        <mxCell id="0ztDgN1kvt_cEAfgAysD-35" value="PK,FK1" style="shape=partialRectangle;connectable=0;fillColor=none;top=0;left=0;bottom=0;right=0;fontStyle=1;overflow=hidden;html=1;whiteSpace=wrap;" vertex="1" parent="0ztDgN1kvt_cEAfgAysD-34">
          <mxGeometry width="60" height="30" as="geometry">
            <mxRectangle width="60" height="30" as="alternateBounds" />
          </mxGeometry>
        </mxCell>
        <mxCell id="0ztDgN1kvt_cEAfgAysD-36" value="IdTecnico" style="shape=partialRectangle;connectable=0;fillColor=none;top=0;left=0;bottom=0;right=0;align=left;spacingLeft=6;fontStyle=5;overflow=hidden;html=1;whiteSpace=wrap;" vertex="1" parent="0ztDgN1kvt_cEAfgAysD-34">
          <mxGeometry x="60" width="174.1500244140625" height="30" as="geometry">
            <mxRectangle width="174.1500244140625" height="30" as="alternateBounds" />
          </mxGeometry>
        </mxCell>
        <mxCell id="0ztDgN1kvt_cEAfgAysD-37" value="" style="shape=tableRow;horizontal=0;startSize=0;swimlaneHead=0;swimlaneBody=0;fillColor=none;collapsible=0;dropTarget=0;points=[[0,0.5],[1,0.5]];portConstraint=eastwest;top=0;left=0;right=0;bottom=1;html=1;" vertex="1" parent="0ztDgN1kvt_cEAfgAysD-33">
          <mxGeometry y="60" width="234.1500244140625" height="30" as="geometry" />
        </mxCell>
        <mxCell id="0ztDgN1kvt_cEAfgAysD-38" value="PK,FK2" style="shape=partialRectangle;connectable=0;fillColor=none;top=0;left=0;bottom=0;right=0;fontStyle=1;overflow=hidden;html=1;whiteSpace=wrap;" vertex="1" parent="0ztDgN1kvt_cEAfgAysD-37">
          <mxGeometry width="60" height="30" as="geometry">
            <mxRectangle width="60" height="30" as="alternateBounds" />
          </mxGeometry>
        </mxCell>
        <mxCell id="0ztDgN1kvt_cEAfgAysD-39" value="IdMaquina" style="shape=partialRectangle;connectable=0;fillColor=none;top=0;left=0;bottom=0;right=0;align=left;spacingLeft=6;fontStyle=5;overflow=hidden;html=1;whiteSpace=wrap;" vertex="1" parent="0ztDgN1kvt_cEAfgAysD-37">
          <mxGeometry x="60" width="174.1500244140625" height="30" as="geometry">
            <mxRectangle width="174.1500244140625" height="30" as="alternateBounds" />
          </mxGeometry>
        </mxCell>
        <mxCell id="0ztDgN1kvt_cEAfgAysD-40" value="" style="shape=tableRow;horizontal=0;startSize=0;swimlaneHead=0;swimlaneBody=0;fillColor=none;collapsible=0;dropTarget=0;points=[[0,0.5],[1,0.5]];portConstraint=eastwest;top=0;left=0;right=0;bottom=0;html=1;" vertex="1" parent="0ztDgN1kvt_cEAfgAysD-33">
          <mxGeometry y="90" width="234.1500244140625" height="32" as="geometry" />
        </mxCell>
        <mxCell id="0ztDgN1kvt_cEAfgAysD-41" value="nn" style="shape=partialRectangle;connectable=0;fillColor=none;top=0;left=0;bottom=0;right=0;editable=1;overflow=hidden;html=1;whiteSpace=wrap;" vertex="1" parent="0ztDgN1kvt_cEAfgAysD-40">
          <mxGeometry width="60" height="32" as="geometry">
            <mxRectangle width="60" height="32" as="alternateBounds" />
          </mxGeometry>
        </mxCell>
        <mxCell id="0ztDgN1kvt_cEAfgAysD-42" value="Fecha" style="shape=partialRectangle;connectable=0;fillColor=none;top=0;left=0;bottom=0;right=0;align=left;spacingLeft=6;overflow=hidden;html=1;whiteSpace=wrap;" vertex="1" parent="0ztDgN1kvt_cEAfgAysD-40">
          <mxGeometry x="60" width="174.1500244140625" height="32" as="geometry">
            <mxRectangle width="174.1500244140625" height="32" as="alternateBounds" />
          </mxGeometry>
        </mxCell>
        <mxCell id="0ztDgN1kvt_cEAfgAysD-43" value="" style="shape=tableRow;horizontal=0;startSize=0;swimlaneHead=0;swimlaneBody=0;fillColor=none;collapsible=0;dropTarget=0;points=[[0,0.5],[1,0.5]];portConstraint=eastwest;top=0;left=0;right=0;bottom=0;html=1;" vertex="1" parent="0ztDgN1kvt_cEAfgAysD-33">
          <mxGeometry y="122" width="234.1500244140625" height="40" as="geometry" />
        </mxCell>
        <mxCell id="0ztDgN1kvt_cEAfgAysD-44" value="nn" style="shape=partialRectangle;connectable=0;fillColor=none;top=0;left=0;bottom=0;right=0;editable=1;overflow=hidden;html=1;whiteSpace=wrap;" vertex="1" parent="0ztDgN1kvt_cEAfgAysD-43">
          <mxGeometry width="60" height="40" as="geometry">
            <mxRectangle width="60" height="40" as="alternateBounds" />
          </mxGeometry>
        </mxCell>
        <mxCell id="0ztDgN1kvt_cEAfgAysD-45" value="Turno (mañana,tarde,noche)" style="shape=partialRectangle;connectable=0;fillColor=none;top=0;left=0;bottom=0;right=0;align=left;spacingLeft=6;overflow=hidden;html=1;whiteSpace=wrap;" vertex="1" parent="0ztDgN1kvt_cEAfgAysD-43">
          <mxGeometry x="60" width="174.1500244140625" height="40" as="geometry">
            <mxRectangle width="174.1500244140625" height="40" as="alternateBounds" />
          </mxGeometry>
        </mxCell>
        <mxCell id="0ztDgN1kvt_cEAfgAysD-46" value="" style="edgeStyle=entityRelationEdgeStyle;fontSize=12;html=1;endArrow=ERoneToMany;startArrow=ERmandOne;rounded=0;" edge="1" parent="1" source="0ztDgN1kvt_cEAfgAysD-2" target="0ztDgN1kvt_cEAfgAysD-34">
          <mxGeometry width="100" height="100" relative="1" as="geometry">
            <mxPoint x="374" y="352" as="sourcePoint" />
            <mxPoint x="474" y="252" as="targetPoint" />
          </mxGeometry>
        </mxCell>
        <mxCell id="0ztDgN1kvt_cEAfgAysD-47" value="" style="edgeStyle=entityRelationEdgeStyle;fontSize=12;html=1;endArrow=ERoneToMany;startArrow=ERmandOne;rounded=0;" edge="1" parent="1" source="0ztDgN1kvt_cEAfgAysD-21" target="0ztDgN1kvt_cEAfgAysD-37">
          <mxGeometry width="100" height="100" relative="1" as="geometry">
            <mxPoint x="374" y="352" as="sourcePoint" />
            <mxPoint x="474" y="252" as="targetPoint" />
          </mxGeometry>
        </mxCell>
        <mxCell id="0ztDgN1kvt_cEAfgAysD-61" value="Telefonos" style="shape=table;startSize=30;container=1;collapsible=1;childLayout=tableLayout;fixedRows=1;rowLines=0;fontStyle=1;align=center;resizeLast=1;html=1;" vertex="1" parent="1">
          <mxGeometry x="-307" y="145" width="180" height="120" as="geometry" />
        </mxCell>
        <mxCell id="0ztDgN1kvt_cEAfgAysD-62" value="" style="shape=tableRow;horizontal=0;startSize=0;swimlaneHead=0;swimlaneBody=0;fillColor=none;collapsible=0;dropTarget=0;points=[[0,0.5],[1,0.5]];portConstraint=eastwest;top=0;left=0;right=0;bottom=1;" vertex="1" parent="0ztDgN1kvt_cEAfgAysD-61">
          <mxGeometry y="30" width="180" height="30" as="geometry" />
        </mxCell>
        <mxCell id="0ztDgN1kvt_cEAfgAysD-63" value="PK" style="shape=partialRectangle;connectable=0;fillColor=none;top=0;left=0;bottom=0;right=0;fontStyle=1;overflow=hidden;whiteSpace=wrap;html=1;" vertex="1" parent="0ztDgN1kvt_cEAfgAysD-62">
          <mxGeometry width="50.350006103515625" height="30" as="geometry">
            <mxRectangle width="50.350006103515625" height="30" as="alternateBounds" />
          </mxGeometry>
        </mxCell>
        <mxCell id="0ztDgN1kvt_cEAfgAysD-64" value="IdTelefono" style="shape=partialRectangle;connectable=0;fillColor=none;top=0;left=0;bottom=0;right=0;align=left;spacingLeft=6;fontStyle=5;overflow=hidden;whiteSpace=wrap;html=1;" vertex="1" parent="0ztDgN1kvt_cEAfgAysD-62">
          <mxGeometry x="50.350006103515625" width="129.64999389648438" height="30" as="geometry">
            <mxRectangle width="129.64999389648438" height="30" as="alternateBounds" />
          </mxGeometry>
        </mxCell>
        <mxCell id="0ztDgN1kvt_cEAfgAysD-65" value="" style="shape=tableRow;horizontal=0;startSize=0;swimlaneHead=0;swimlaneBody=0;fillColor=none;collapsible=0;dropTarget=0;points=[[0,0.5],[1,0.5]];portConstraint=eastwest;top=0;left=0;right=0;bottom=0;" vertex="1" parent="0ztDgN1kvt_cEAfgAysD-61">
          <mxGeometry y="60" width="180" height="30" as="geometry" />
        </mxCell>
        <mxCell id="0ztDgN1kvt_cEAfgAysD-66" value="fk, nn" style="shape=partialRectangle;connectable=0;fillColor=none;top=0;left=0;bottom=0;right=0;editable=1;overflow=hidden;whiteSpace=wrap;html=1;" vertex="1" parent="0ztDgN1kvt_cEAfgAysD-65">
          <mxGeometry width="50.350006103515625" height="30" as="geometry">
            <mxRectangle width="50.350006103515625" height="30" as="alternateBounds" />
          </mxGeometry>
        </mxCell>
        <mxCell id="0ztDgN1kvt_cEAfgAysD-67" value="IdTecnico" style="shape=partialRectangle;connectable=0;fillColor=none;top=0;left=0;bottom=0;right=0;align=left;spacingLeft=6;overflow=hidden;whiteSpace=wrap;html=1;" vertex="1" parent="0ztDgN1kvt_cEAfgAysD-65">
          <mxGeometry x="50.350006103515625" width="129.64999389648438" height="30" as="geometry">
            <mxRectangle width="129.64999389648438" height="30" as="alternateBounds" />
          </mxGeometry>
        </mxCell>
        <mxCell id="0ztDgN1kvt_cEAfgAysD-68" value="" style="shape=tableRow;horizontal=0;startSize=0;swimlaneHead=0;swimlaneBody=0;fillColor=none;collapsible=0;dropTarget=0;points=[[0,0.5],[1,0.5]];portConstraint=eastwest;top=0;left=0;right=0;bottom=0;" vertex="1" parent="0ztDgN1kvt_cEAfgAysD-61">
          <mxGeometry y="90" width="180" height="30" as="geometry" />
        </mxCell>
        <mxCell id="0ztDgN1kvt_cEAfgAysD-69" value="nn" style="shape=partialRectangle;connectable=0;fillColor=none;top=0;left=0;bottom=0;right=0;editable=1;overflow=hidden;whiteSpace=wrap;html=1;" vertex="1" parent="0ztDgN1kvt_cEAfgAysD-68">
          <mxGeometry width="50.350006103515625" height="30" as="geometry">
            <mxRectangle width="50.350006103515625" height="30" as="alternateBounds" />
          </mxGeometry>
        </mxCell>
        <mxCell id="0ztDgN1kvt_cEAfgAysD-70" value="Telefono" style="shape=partialRectangle;connectable=0;fillColor=none;top=0;left=0;bottom=0;right=0;align=left;spacingLeft=6;overflow=hidden;whiteSpace=wrap;html=1;" vertex="1" parent="0ztDgN1kvt_cEAfgAysD-68">
          <mxGeometry x="50.350006103515625" width="129.64999389648438" height="30" as="geometry">
            <mxRectangle width="129.64999389648438" height="30" as="alternateBounds" />
          </mxGeometry>
        </mxCell>
        <mxCell id="0ztDgN1kvt_cEAfgAysD-74" value="" style="edgeStyle=entityRelationEdgeStyle;fontSize=12;html=1;endArrow=ERoneToMany;startArrow=ERmandOne;rounded=0;" edge="1" parent="1" source="0ztDgN1kvt_cEAfgAysD-2" target="0ztDgN1kvt_cEAfgAysD-65">
          <mxGeometry width="100" height="100" relative="1" as="geometry">
            <mxPoint x="-197" y="404" as="sourcePoint" />
            <mxPoint x="-76" y="228" as="targetPoint" />
          </mxGeometry>
        </mxCell>
        <mxCell id="0ztDgN1kvt_cEAfgAysD-75" value="Reparacion" style="shape=table;startSize=30;container=1;collapsible=1;childLayout=tableLayout;fixedRows=1;rowLines=0;fontStyle=1;align=center;resizeLast=1;html=1;" vertex="1" parent="1">
          <mxGeometry x="993" y="-31" width="180" height="120" as="geometry" />
        </mxCell>
        <mxCell id="0ztDgN1kvt_cEAfgAysD-76" value="" style="shape=tableRow;horizontal=0;startSize=0;swimlaneHead=0;swimlaneBody=0;fillColor=none;collapsible=0;dropTarget=0;points=[[0,0.5],[1,0.5]];portConstraint=eastwest;top=0;left=0;right=0;bottom=1;" vertex="1" parent="0ztDgN1kvt_cEAfgAysD-75">
          <mxGeometry y="30" width="180" height="30" as="geometry" />
        </mxCell>
        <mxCell id="0ztDgN1kvt_cEAfgAysD-77" value="PK" style="shape=partialRectangle;connectable=0;fillColor=none;top=0;left=0;bottom=0;right=0;fontStyle=1;overflow=hidden;whiteSpace=wrap;html=1;" vertex="1" parent="0ztDgN1kvt_cEAfgAysD-76">
          <mxGeometry width="38.821376255580276" height="30" as="geometry">
            <mxRectangle width="38.821376255580276" height="30" as="alternateBounds" />
          </mxGeometry>
        </mxCell>
        <mxCell id="0ztDgN1kvt_cEAfgAysD-78" value="IdReparacion" style="shape=partialRectangle;connectable=0;fillColor=none;top=0;left=0;bottom=0;right=0;align=left;spacingLeft=6;fontStyle=5;overflow=hidden;whiteSpace=wrap;html=1;" vertex="1" parent="0ztDgN1kvt_cEAfgAysD-76">
          <mxGeometry x="38.821376255580276" width="141.17862374441972" height="30" as="geometry">
            <mxRectangle width="141.17862374441972" height="30" as="alternateBounds" />
          </mxGeometry>
        </mxCell>
        <mxCell id="0ztDgN1kvt_cEAfgAysD-79" value="" style="shape=tableRow;horizontal=0;startSize=0;swimlaneHead=0;swimlaneBody=0;fillColor=none;collapsible=0;dropTarget=0;points=[[0,0.5],[1,0.5]];portConstraint=eastwest;top=0;left=0;right=0;bottom=0;" vertex="1" parent="0ztDgN1kvt_cEAfgAysD-75">
          <mxGeometry y="60" width="180" height="30" as="geometry" />
        </mxCell>
        <mxCell id="0ztDgN1kvt_cEAfgAysD-80" value="fk" style="shape=partialRectangle;connectable=0;fillColor=none;top=0;left=0;bottom=0;right=0;editable=1;overflow=hidden;whiteSpace=wrap;html=1;" vertex="1" parent="0ztDgN1kvt_cEAfgAysD-79">
          <mxGeometry width="38.821376255580276" height="30" as="geometry">
            <mxRectangle width="38.821376255580276" height="30" as="alternateBounds" />
          </mxGeometry>
        </mxCell>
        <mxCell id="0ztDgN1kvt_cEAfgAysD-81" value="IdMaquinaReparar" style="shape=partialRectangle;connectable=0;fillColor=none;top=0;left=0;bottom=0;right=0;align=left;spacingLeft=6;overflow=hidden;whiteSpace=wrap;html=1;" vertex="1" parent="0ztDgN1kvt_cEAfgAysD-79">
          <mxGeometry x="38.821376255580276" width="141.17862374441972" height="30" as="geometry">
            <mxRectangle width="141.17862374441972" height="30" as="alternateBounds" />
          </mxGeometry>
        </mxCell>
        <mxCell id="0ztDgN1kvt_cEAfgAysD-82" value="" style="shape=tableRow;horizontal=0;startSize=0;swimlaneHead=0;swimlaneBody=0;fillColor=none;collapsible=0;dropTarget=0;points=[[0,0.5],[1,0.5]];portConstraint=eastwest;top=0;left=0;right=0;bottom=0;" vertex="1" parent="0ztDgN1kvt_cEAfgAysD-75">
          <mxGeometry y="90" width="180" height="30" as="geometry" />
        </mxCell>
        <mxCell id="0ztDgN1kvt_cEAfgAysD-83" value="fk" style="shape=partialRectangle;connectable=0;fillColor=none;top=0;left=0;bottom=0;right=0;editable=1;overflow=hidden;whiteSpace=wrap;html=1;" vertex="1" parent="0ztDgN1kvt_cEAfgAysD-82">
          <mxGeometry width="38.821376255580276" height="30" as="geometry">
            <mxRectangle width="38.821376255580276" height="30" as="alternateBounds" />
          </mxGeometry>
        </mxCell>
        <mxCell id="0ztDgN1kvt_cEAfgAysD-84" value="IdMaquinaReemplazo" style="shape=partialRectangle;connectable=0;fillColor=none;top=0;left=0;bottom=0;right=0;align=left;spacingLeft=6;overflow=hidden;whiteSpace=wrap;html=1;" vertex="1" parent="0ztDgN1kvt_cEAfgAysD-82">
          <mxGeometry x="38.821376255580276" width="141.17862374441972" height="30" as="geometry">
            <mxRectangle width="141.17862374441972" height="30" as="alternateBounds" />
          </mxGeometry>
        </mxCell>
        <mxCell id="0ztDgN1kvt_cEAfgAysD-88" value="" style="edgeStyle=entityRelationEdgeStyle;fontSize=12;html=1;endArrow=ERzeroToOne;startArrow=ERzeroToOne;rounded=0;startFill=0;endFill=0;" edge="1" parent="1" source="0ztDgN1kvt_cEAfgAysD-21" target="0ztDgN1kvt_cEAfgAysD-79">
          <mxGeometry width="100" height="100" relative="1" as="geometry">
            <mxPoint x="724" y="304" as="sourcePoint" />
            <mxPoint x="824" y="204" as="targetPoint" />
          </mxGeometry>
        </mxCell>
        <mxCell id="0ztDgN1kvt_cEAfgAysD-89" value="" style="edgeStyle=entityRelationEdgeStyle;fontSize=12;html=1;endArrow=ERzeroToOne;startArrow=ERzeroToOne;rounded=0;startFill=0;endFill=0;" edge="1" parent="1" source="0ztDgN1kvt_cEAfgAysD-21" target="0ztDgN1kvt_cEAfgAysD-82">
          <mxGeometry width="100" height="100" relative="1" as="geometry">
            <mxPoint x="724" y="304" as="sourcePoint" />
            <mxPoint x="824" y="204" as="targetPoint" />
          </mxGeometry>
        </mxCell>
        <mxCell id="0ztDgN1kvt_cEAfgAysD-90" value="Planta" style="shape=table;startSize=30;container=1;collapsible=1;childLayout=tableLayout;fixedRows=1;rowLines=0;fontStyle=1;align=center;resizeLast=1;html=1;" vertex="1" parent="1">
          <mxGeometry x="937" y="233" width="180" height="120" as="geometry" />
        </mxCell>
        <mxCell id="0ztDgN1kvt_cEAfgAysD-91" value="" style="shape=tableRow;horizontal=0;startSize=0;swimlaneHead=0;swimlaneBody=0;fillColor=none;collapsible=0;dropTarget=0;points=[[0,0.5],[1,0.5]];portConstraint=eastwest;top=0;left=0;right=0;bottom=1;" vertex="1" parent="0ztDgN1kvt_cEAfgAysD-90">
          <mxGeometry y="30" width="180" height="30" as="geometry" />
        </mxCell>
        <mxCell id="0ztDgN1kvt_cEAfgAysD-92" value="PK" style="shape=partialRectangle;connectable=0;fillColor=none;top=0;left=0;bottom=0;right=0;fontStyle=1;overflow=hidden;whiteSpace=wrap;html=1;" vertex="1" parent="0ztDgN1kvt_cEAfgAysD-91">
          <mxGeometry width="30" height="30" as="geometry">
            <mxRectangle width="30" height="30" as="alternateBounds" />
          </mxGeometry>
        </mxCell>
        <mxCell id="0ztDgN1kvt_cEAfgAysD-93" value="IdPlanta" style="shape=partialRectangle;connectable=0;fillColor=none;top=0;left=0;bottom=0;right=0;align=left;spacingLeft=6;fontStyle=5;overflow=hidden;whiteSpace=wrap;html=1;" vertex="1" parent="0ztDgN1kvt_cEAfgAysD-91">
          <mxGeometry x="30" width="150" height="30" as="geometry">
            <mxRectangle width="150" height="30" as="alternateBounds" />
          </mxGeometry>
        </mxCell>
        <mxCell id="0ztDgN1kvt_cEAfgAysD-100" value="" style="shape=tableRow;horizontal=0;startSize=0;swimlaneHead=0;swimlaneBody=0;fillColor=none;collapsible=0;dropTarget=0;points=[[0,0.5],[1,0.5]];portConstraint=eastwest;top=0;left=0;right=0;bottom=0;" vertex="1" parent="0ztDgN1kvt_cEAfgAysD-90">
          <mxGeometry y="60" width="180" height="30" as="geometry" />
        </mxCell>
        <mxCell id="0ztDgN1kvt_cEAfgAysD-101" value="uk" style="shape=partialRectangle;connectable=0;fillColor=none;top=0;left=0;bottom=0;right=0;editable=1;overflow=hidden;whiteSpace=wrap;html=1;" vertex="1" parent="0ztDgN1kvt_cEAfgAysD-100">
          <mxGeometry width="30" height="30" as="geometry">
            <mxRectangle width="30" height="30" as="alternateBounds" />
          </mxGeometry>
        </mxCell>
        <mxCell id="0ztDgN1kvt_cEAfgAysD-102" value="IdColor" style="shape=partialRectangle;connectable=0;fillColor=none;top=0;left=0;bottom=0;right=0;align=left;spacingLeft=6;overflow=hidden;whiteSpace=wrap;html=1;" vertex="1" parent="0ztDgN1kvt_cEAfgAysD-100">
          <mxGeometry x="30" width="150" height="30" as="geometry">
            <mxRectangle width="150" height="30" as="alternateBounds" />
          </mxGeometry>
        </mxCell>
        <mxCell id="0ztDgN1kvt_cEAfgAysD-97" value="" style="shape=tableRow;horizontal=0;startSize=0;swimlaneHead=0;swimlaneBody=0;fillColor=none;collapsible=0;dropTarget=0;points=[[0,0.5],[1,0.5]];portConstraint=eastwest;top=0;left=0;right=0;bottom=0;" vertex="1" parent="0ztDgN1kvt_cEAfgAysD-90">
          <mxGeometry y="90" width="180" height="30" as="geometry" />
        </mxCell>
        <mxCell id="0ztDgN1kvt_cEAfgAysD-98" value="" style="shape=partialRectangle;connectable=0;fillColor=none;top=0;left=0;bottom=0;right=0;editable=1;overflow=hidden;whiteSpace=wrap;html=1;" vertex="1" parent="0ztDgN1kvt_cEAfgAysD-97">
          <mxGeometry width="30" height="30" as="geometry">
            <mxRectangle width="30" height="30" as="alternateBounds" />
          </mxGeometry>
        </mxCell>
        <mxCell id="0ztDgN1kvt_cEAfgAysD-99" value="Superficie" style="shape=partialRectangle;connectable=0;fillColor=none;top=0;left=0;bottom=0;right=0;align=left;spacingLeft=6;overflow=hidden;whiteSpace=wrap;html=1;" vertex="1" parent="0ztDgN1kvt_cEAfgAysD-97">
          <mxGeometry x="30" width="150" height="30" as="geometry">
            <mxRectangle width="150" height="30" as="alternateBounds" />
          </mxGeometry>
        </mxCell>
        <mxCell id="0ztDgN1kvt_cEAfgAysD-103" value="Dimension" style="shape=table;startSize=30;container=1;collapsible=1;childLayout=tableLayout;fixedRows=1;rowLines=0;fontStyle=1;align=center;resizeLast=1;html=1;" vertex="1" parent="1">
          <mxGeometry x="937" y="420" width="180" height="120" as="geometry" />
        </mxCell>
        <mxCell id="0ztDgN1kvt_cEAfgAysD-104" value="" style="shape=tableRow;horizontal=0;startSize=0;swimlaneHead=0;swimlaneBody=0;fillColor=none;collapsible=0;dropTarget=0;points=[[0,0.5],[1,0.5]];portConstraint=eastwest;top=0;left=0;right=0;bottom=1;" vertex="1" parent="0ztDgN1kvt_cEAfgAysD-103">
          <mxGeometry y="30" width="180" height="30" as="geometry" />
        </mxCell>
        <mxCell id="0ztDgN1kvt_cEAfgAysD-105" value="PK,FK" style="shape=partialRectangle;connectable=0;fillColor=none;top=0;left=0;bottom=0;right=0;fontStyle=1;overflow=hidden;whiteSpace=wrap;html=1;" vertex="1" parent="0ztDgN1kvt_cEAfgAysD-104">
          <mxGeometry width="39.107142857142776" height="30" as="geometry">
            <mxRectangle width="39.107142857142776" height="30" as="alternateBounds" />
          </mxGeometry>
        </mxCell>
        <mxCell id="0ztDgN1kvt_cEAfgAysD-106" value="IdPlanta" style="shape=partialRectangle;connectable=0;fillColor=none;top=0;left=0;bottom=0;right=0;align=left;spacingLeft=6;fontStyle=5;overflow=hidden;whiteSpace=wrap;html=1;" vertex="1" parent="0ztDgN1kvt_cEAfgAysD-104">
          <mxGeometry x="39.107142857142776" width="140.89285714285722" height="30" as="geometry">
            <mxRectangle width="140.89285714285722" height="30" as="alternateBounds" />
          </mxGeometry>
        </mxCell>
        <mxCell id="0ztDgN1kvt_cEAfgAysD-107" value="" style="shape=tableRow;horizontal=0;startSize=0;swimlaneHead=0;swimlaneBody=0;fillColor=none;collapsible=0;dropTarget=0;points=[[0,0.5],[1,0.5]];portConstraint=eastwest;top=0;left=0;right=0;bottom=0;" vertex="1" parent="0ztDgN1kvt_cEAfgAysD-103">
          <mxGeometry y="60" width="180" height="30" as="geometry" />
        </mxCell>
        <mxCell id="0ztDgN1kvt_cEAfgAysD-108" value="" style="shape=partialRectangle;connectable=0;fillColor=none;top=0;left=0;bottom=0;right=0;editable=1;overflow=hidden;whiteSpace=wrap;html=1;" vertex="1" parent="0ztDgN1kvt_cEAfgAysD-107">
          <mxGeometry width="39.107142857142776" height="30" as="geometry">
            <mxRectangle width="39.107142857142776" height="30" as="alternateBounds" />
          </mxGeometry>
        </mxCell>
        <mxCell id="0ztDgN1kvt_cEAfgAysD-109" value="Largo" style="shape=partialRectangle;connectable=0;fillColor=none;top=0;left=0;bottom=0;right=0;align=left;spacingLeft=6;overflow=hidden;whiteSpace=wrap;html=1;" vertex="1" parent="0ztDgN1kvt_cEAfgAysD-107">
          <mxGeometry x="39.107142857142776" width="140.89285714285722" height="30" as="geometry">
            <mxRectangle width="140.89285714285722" height="30" as="alternateBounds" />
          </mxGeometry>
        </mxCell>
        <mxCell id="0ztDgN1kvt_cEAfgAysD-110" value="" style="shape=tableRow;horizontal=0;startSize=0;swimlaneHead=0;swimlaneBody=0;fillColor=none;collapsible=0;dropTarget=0;points=[[0,0.5],[1,0.5]];portConstraint=eastwest;top=0;left=0;right=0;bottom=0;" vertex="1" parent="0ztDgN1kvt_cEAfgAysD-103">
          <mxGeometry y="90" width="180" height="30" as="geometry" />
        </mxCell>
        <mxCell id="0ztDgN1kvt_cEAfgAysD-111" value="" style="shape=partialRectangle;connectable=0;fillColor=none;top=0;left=0;bottom=0;right=0;editable=1;overflow=hidden;whiteSpace=wrap;html=1;" vertex="1" parent="0ztDgN1kvt_cEAfgAysD-110">
          <mxGeometry width="39.107142857142776" height="30" as="geometry">
            <mxRectangle width="39.107142857142776" height="30" as="alternateBounds" />
          </mxGeometry>
        </mxCell>
        <mxCell id="0ztDgN1kvt_cEAfgAysD-112" value="Ancho" style="shape=partialRectangle;connectable=0;fillColor=none;top=0;left=0;bottom=0;right=0;align=left;spacingLeft=6;overflow=hidden;whiteSpace=wrap;html=1;" vertex="1" parent="0ztDgN1kvt_cEAfgAysD-110">
          <mxGeometry x="39.107142857142776" width="140.89285714285722" height="30" as="geometry">
            <mxRectangle width="140.89285714285722" height="30" as="alternateBounds" />
          </mxGeometry>
        </mxCell>
        <mxCell id="0ztDgN1kvt_cEAfgAysD-116" value="" style="edgeStyle=entityRelationEdgeStyle;fontSize=12;html=1;endArrow=ERmandOne;startArrow=ERmandOne;rounded=0;exitX=0.998;exitY=0.709;exitDx=0;exitDy=0;exitPerimeter=0;" edge="1" parent="1" source="0ztDgN1kvt_cEAfgAysD-91" target="0ztDgN1kvt_cEAfgAysD-104">
          <mxGeometry width="100" height="100" relative="1" as="geometry">
            <mxPoint x="744" y="73" as="sourcePoint" />
            <mxPoint x="844" y="-27" as="targetPoint" />
          </mxGeometry>
        </mxCell>
        <mxCell id="0ztDgN1kvt_cEAfgAysD-130" value="" style="edgeStyle=entityRelationEdgeStyle;fontSize=12;html=1;endArrow=ERoneToMany;startArrow=ERmandOne;rounded=0;" edge="1" parent="1" source="0ztDgN1kvt_cEAfgAysD-91" target="0ztDgN1kvt_cEAfgAysD-127">
          <mxGeometry width="100" height="100" relative="1" as="geometry">
            <mxPoint x="739" y="401" as="sourcePoint" />
            <mxPoint x="839" y="301" as="targetPoint" />
          </mxGeometry>
        </mxCell>
        <mxCell id="0ztDgN1kvt_cEAfgAysD-132" value="Proceso" style="shape=table;startSize=30;container=1;collapsible=1;childLayout=tableLayout;fixedRows=1;rowLines=0;fontStyle=1;align=center;resizeLast=1;html=1;" vertex="1" parent="1">
          <mxGeometry x="1473" y="228" width="180" height="120" as="geometry" />
        </mxCell>
        <mxCell id="0ztDgN1kvt_cEAfgAysD-133" value="" style="shape=tableRow;horizontal=0;startSize=0;swimlaneHead=0;swimlaneBody=0;fillColor=none;collapsible=0;dropTarget=0;points=[[0,0.5],[1,0.5]];portConstraint=eastwest;top=0;left=0;right=0;bottom=1;" vertex="1" parent="0ztDgN1kvt_cEAfgAysD-132">
          <mxGeometry y="30" width="180" height="30" as="geometry" />
        </mxCell>
        <mxCell id="0ztDgN1kvt_cEAfgAysD-134" value="PK" style="shape=partialRectangle;connectable=0;fillColor=none;top=0;left=0;bottom=0;right=0;fontStyle=1;overflow=hidden;whiteSpace=wrap;html=1;" vertex="1" parent="0ztDgN1kvt_cEAfgAysD-133">
          <mxGeometry width="30" height="30" as="geometry">
            <mxRectangle width="30" height="30" as="alternateBounds" />
          </mxGeometry>
        </mxCell>
        <mxCell id="0ztDgN1kvt_cEAfgAysD-135" value="IdProceso" style="shape=partialRectangle;connectable=0;fillColor=none;top=0;left=0;bottom=0;right=0;align=left;spacingLeft=6;fontStyle=5;overflow=hidden;whiteSpace=wrap;html=1;" vertex="1" parent="0ztDgN1kvt_cEAfgAysD-133">
          <mxGeometry x="30" width="150" height="30" as="geometry">
            <mxRectangle width="150" height="30" as="alternateBounds" />
          </mxGeometry>
        </mxCell>
        <mxCell id="0ztDgN1kvt_cEAfgAysD-136" value="" style="shape=tableRow;horizontal=0;startSize=0;swimlaneHead=0;swimlaneBody=0;fillColor=none;collapsible=0;dropTarget=0;points=[[0,0.5],[1,0.5]];portConstraint=eastwest;top=0;left=0;right=0;bottom=0;" vertex="1" parent="0ztDgN1kvt_cEAfgAysD-132">
          <mxGeometry y="60" width="180" height="30" as="geometry" />
        </mxCell>
        <mxCell id="0ztDgN1kvt_cEAfgAysD-137" value="" style="shape=partialRectangle;connectable=0;fillColor=none;top=0;left=0;bottom=0;right=0;editable=1;overflow=hidden;whiteSpace=wrap;html=1;" vertex="1" parent="0ztDgN1kvt_cEAfgAysD-136">
          <mxGeometry width="30" height="30" as="geometry">
            <mxRectangle width="30" height="30" as="alternateBounds" />
          </mxGeometry>
        </mxCell>
        <mxCell id="0ztDgN1kvt_cEAfgAysD-138" value="Nombre" style="shape=partialRectangle;connectable=0;fillColor=none;top=0;left=0;bottom=0;right=0;align=left;spacingLeft=6;overflow=hidden;whiteSpace=wrap;html=1;" vertex="1" parent="0ztDgN1kvt_cEAfgAysD-136">
          <mxGeometry x="30" width="150" height="30" as="geometry">
            <mxRectangle width="150" height="30" as="alternateBounds" />
          </mxGeometry>
        </mxCell>
        <mxCell id="0ztDgN1kvt_cEAfgAysD-139" value="" style="shape=tableRow;horizontal=0;startSize=0;swimlaneHead=0;swimlaneBody=0;fillColor=none;collapsible=0;dropTarget=0;points=[[0,0.5],[1,0.5]];portConstraint=eastwest;top=0;left=0;right=0;bottom=0;" vertex="1" parent="0ztDgN1kvt_cEAfgAysD-132">
          <mxGeometry y="90" width="180" height="30" as="geometry" />
        </mxCell>
        <mxCell id="0ztDgN1kvt_cEAfgAysD-140" value="" style="shape=partialRectangle;connectable=0;fillColor=none;top=0;left=0;bottom=0;right=0;editable=1;overflow=hidden;whiteSpace=wrap;html=1;" vertex="1" parent="0ztDgN1kvt_cEAfgAysD-139">
          <mxGeometry width="30" height="30" as="geometry">
            <mxRectangle width="30" height="30" as="alternateBounds" />
          </mxGeometry>
        </mxCell>
        <mxCell id="0ztDgN1kvt_cEAfgAysD-141" value="Complejidad" style="shape=partialRectangle;connectable=0;fillColor=none;top=0;left=0;bottom=0;right=0;align=left;spacingLeft=6;overflow=hidden;whiteSpace=wrap;html=1;" vertex="1" parent="0ztDgN1kvt_cEAfgAysD-139">
          <mxGeometry x="30" width="150" height="30" as="geometry">
            <mxRectangle width="150" height="30" as="alternateBounds" />
          </mxGeometry>
        </mxCell>
        <mxCell id="0ztDgN1kvt_cEAfgAysD-158" value="ProcesoPlanta" style="shape=table;startSize=30;container=1;collapsible=1;childLayout=tableLayout;fixedRows=1;rowLines=0;fontStyle=1;align=center;resizeLast=1;html=1;whiteSpace=wrap;" vertex="1" parent="1">
          <mxGeometry x="1201" y="231" width="180" height="90" as="geometry" />
        </mxCell>
        <mxCell id="0ztDgN1kvt_cEAfgAysD-159" value="" style="shape=tableRow;horizontal=0;startSize=0;swimlaneHead=0;swimlaneBody=0;fillColor=none;collapsible=0;dropTarget=0;points=[[0,0.5],[1,0.5]];portConstraint=eastwest;top=0;left=0;right=0;bottom=0;html=1;" vertex="1" parent="0ztDgN1kvt_cEAfgAysD-158">
          <mxGeometry y="30" width="180" height="30" as="geometry" />
        </mxCell>
        <mxCell id="0ztDgN1kvt_cEAfgAysD-160" value="PK,FK1" style="shape=partialRectangle;connectable=0;fillColor=none;top=0;left=0;bottom=0;right=0;fontStyle=1;overflow=hidden;html=1;whiteSpace=wrap;" vertex="1" parent="0ztDgN1kvt_cEAfgAysD-159">
          <mxGeometry width="60" height="30" as="geometry">
            <mxRectangle width="60" height="30" as="alternateBounds" />
          </mxGeometry>
        </mxCell>
        <mxCell id="0ztDgN1kvt_cEAfgAysD-161" value="IdPlanta" style="shape=partialRectangle;connectable=0;fillColor=none;top=0;left=0;bottom=0;right=0;align=left;spacingLeft=6;fontStyle=5;overflow=hidden;html=1;whiteSpace=wrap;" vertex="1" parent="0ztDgN1kvt_cEAfgAysD-159">
          <mxGeometry x="60" width="120" height="30" as="geometry">
            <mxRectangle width="120" height="30" as="alternateBounds" />
          </mxGeometry>
        </mxCell>
        <mxCell id="0ztDgN1kvt_cEAfgAysD-162" value="" style="shape=tableRow;horizontal=0;startSize=0;swimlaneHead=0;swimlaneBody=0;fillColor=none;collapsible=0;dropTarget=0;points=[[0,0.5],[1,0.5]];portConstraint=eastwest;top=0;left=0;right=0;bottom=1;html=1;" vertex="1" parent="0ztDgN1kvt_cEAfgAysD-158">
          <mxGeometry y="60" width="180" height="30" as="geometry" />
        </mxCell>
        <mxCell id="0ztDgN1kvt_cEAfgAysD-163" value="PK,FK2" style="shape=partialRectangle;connectable=0;fillColor=none;top=0;left=0;bottom=0;right=0;fontStyle=1;overflow=hidden;html=1;whiteSpace=wrap;" vertex="1" parent="0ztDgN1kvt_cEAfgAysD-162">
          <mxGeometry width="60" height="30" as="geometry">
            <mxRectangle width="60" height="30" as="alternateBounds" />
          </mxGeometry>
        </mxCell>
        <mxCell id="0ztDgN1kvt_cEAfgAysD-164" value="IdProceso" style="shape=partialRectangle;connectable=0;fillColor=none;top=0;left=0;bottom=0;right=0;align=left;spacingLeft=6;fontStyle=5;overflow=hidden;html=1;whiteSpace=wrap;" vertex="1" parent="0ztDgN1kvt_cEAfgAysD-162">
          <mxGeometry x="60" width="120" height="30" as="geometry">
            <mxRectangle width="120" height="30" as="alternateBounds" />
          </mxGeometry>
        </mxCell>
        <mxCell id="0ztDgN1kvt_cEAfgAysD-172" value="" style="edgeStyle=entityRelationEdgeStyle;fontSize=12;html=1;endArrow=ERoneToMany;startArrow=ERmandOne;rounded=0;exitX=1;exitY=0.141;exitDx=0;exitDy=0;exitPerimeter=0;" edge="1" parent="1" source="0ztDgN1kvt_cEAfgAysD-91" target="0ztDgN1kvt_cEAfgAysD-159">
          <mxGeometry width="100" height="100" relative="1" as="geometry">
            <mxPoint x="775" y="566" as="sourcePoint" />
            <mxPoint x="875" y="466" as="targetPoint" />
          </mxGeometry>
        </mxCell>
        <mxCell id="0ztDgN1kvt_cEAfgAysD-171" value="" style="edgeStyle=entityRelationEdgeStyle;fontSize=12;html=1;endArrow=ERoneToMany;startArrow=ERmandOne;rounded=0;" edge="1" parent="1" source="0ztDgN1kvt_cEAfgAysD-133" target="0ztDgN1kvt_cEAfgAysD-162">
          <mxGeometry width="100" height="100" relative="1" as="geometry">
            <mxPoint x="775" y="566" as="sourcePoint" />
            <mxPoint x="875" y="466" as="targetPoint" />
          </mxGeometry>
        </mxCell>
      </root>
    </mxGraphModel>
  </diagram>
</mxfile>
